<svg xmlns="http://www.w3.org/2000/svg" xmlns:xlink="http://www.w3.org/1999/xlink" width="141.815" height="36.954" viewBox="0 0 141.815 36.954">
  <defs>
    <clipPath id="clip-path">
      <rect id="Rectangle_1" data-name="Rectangle 1" width="96.808" height="25.691" fill="#fff"/>
    </clipPath>
    <clipPath id="clip-path-2">
      <rect id="Rectangle_2" data-name="Rectangle 2" width="36.954" height="36.954" fill="#fff"/>
    </clipPath>
  </defs>
  <g id="_2D_Logo_Dark" data-name="2D_Logo_Dark" transform="translate(-0.857 -0.168)">
    <g id="Group_2" data-name="Group 2" transform="translate(45.864 5.821)" clip-path="url(#clip-path)">
      <path id="Path_1" data-name="Path 1" d="M2130.789,363.605h-3.882a1.669,1.669,0,0,0-1.669,1.669v1.789c0,.728-.151,1-.364,1.153a2.2,2.2,0,0,1-1.213.242c-1.668,0-2.669-1.183-2.669-3.609v-1.668c0-2.123,1.152-3.852,4.823-3.852a30.981,30.981,0,0,1,4.731.425,1.365,1.365,0,0,0,1.82-1.487v-3.973a1.623,1.623,0,0,0-1.516-1.789,47.239,47.239,0,0,0-6.795-.516c-7.313,0-11.5,2.822-12.616,7.988a2.041,2.041,0,0,0,.518,1.846l.879.917a1.9,1.9,0,0,1-.062,2.7l-.846.8a2.036,2.036,0,0,0-.6,1.841c.917,5.022,5.053,7.747,11.938,7.747,1.85,0,5.4-.152,7.765-.425a1.511,1.511,0,0,0,1.425-1.729v-8.4A1.669,1.669,0,0,0,2130.789,363.605Z" transform="translate(-2111.296 -350.138)" fill="#180e02"/>
      <path id="Path_2" data-name="Path 2" d="M3149.09,269.6V268.17c0-1.729,1.457-2.912,3.792-2.912h2.517c2.275,0,3.7,1.183,3.7,2.912V269.6c0,1.911-1.425,3.155-3.7,3.155h-2.517C3150.546,272.75,3149.09,271.506,3149.09,269.6Zm.606,19.382V275.692a1.517,1.517,0,0,1,1.668-1.668h5.459a1.517,1.517,0,0,1,1.668,1.668v13.285a1.517,1.517,0,0,1-1.668,1.668h-5.459A1.517,1.517,0,0,1,3149.7,288.977Z" transform="translate(-3126.958 -265.258)" fill="#180e02"/>
      <path id="Path_3" data-name="Path 3" d="M4706.2,327.725l-1-2.79a9.114,9.114,0,0,0-2.1-3l-.322-.336a1.905,1.905,0,0,1,.062-2.7,9.09,9.09,0,0,0,2.373-3.259l.959-2.66c.425-1.183-.122-1.911-1.335-1.911h-6.005a1.682,1.682,0,0,0-1.819,1.486,32.4,32.4,0,0,1-1.032,4.125.711.711,0,0,1-.758.486,1.392,1.392,0,0,1-1.152-.334,2.075,2.075,0,0,1-.212-1.183c0-1.3.09-6.006.151-8.887a1.5,1.5,0,0,0-1.668-1.669h-5.551a1.669,1.669,0,0,0-1.668,1.669v21.2a1.668,1.668,0,0,0,1.668,1.668h5.611a1.477,1.477,0,0,0,1.639-1.729c-.061-.97-.092-1.7-.092-2.76a3.691,3.691,0,0,1,.182-1.455c.182-.3.637-.3,1.092-.3a.591.591,0,0,1,.637.455c.3,1,.729,2.912,1.031,4.307a1.684,1.684,0,0,0,1.82,1.486h6.157c1.213,0,1.759-.727,1.334-1.911Z" transform="translate(-4630.23 -304.248)" fill="#180e02"/>
      <path id="Path_4" data-name="Path 4" d="M5675.04,582.223v-2.4c0-5.278,3.64-8.827,9.069-8.827h2.67c5.429,0,9.069,3.549,9.069,8.827v2.4c0,4.732-3.64,7.947-9.069,7.947h-2.67C5678.68,590.169,5675.04,586.955,5675.04,582.223Zm12.527-1.061V580.1c0-1.972-.759-3.185-2.123-3.185s-2.093,1.213-2.093,3.155v1.062c0,1.941.758,3.124,2.093,3.124S5687.567,583.072,5687.567,581.162Z" transform="translate(-5599.04 -564.48)" fill="#180e02"/>
      <g id="Group_1" data-name="Group 1" transform="translate(33.082 6.501)">
        <path id="Path_5" data-name="Path 5" d="M3664.208,588.972a1.518,1.518,0,0,1-1.668-1.668V572.577a2.167,2.167,0,0,1,2.167-2.168h3.692c1.061,0,1.359.136,1.638.849.226.578.226,1.971,1.155,1.971,1.394,0,.774-3.1,5.425-3.124h1.7c3.124,0,4.489,2.215,4.489,4.883V587.3a1.517,1.517,0,0,1-1.668,1.668h-5.55a1.48,1.48,0,0,1-1.638-1.7c.061-2.851.152-5.612.152-7.825,0-1.668-.487-2.518-1.487-2.518-.94,0-1.4.819-1.4,2.487.031,2.092.121,4.944.212,7.856a1.5,1.5,0,0,1-1.668,1.7h-5.553v0Z" transform="translate(-3662.54 -570.105)" fill="#180e02"/>
      </g>
    </g>
    <g id="Group_3" data-name="Group 3" transform="translate(0.857 0.168)" clip-path="url(#clip-path-2)">
      <path id="Path_6" data-name="Path 6" d="M29.611.184H9.044A8.194,8.194,0,0,0,.851,8.377V28.944a8.193,8.193,0,0,0,8.194,8.193H29.611A8.193,8.193,0,0,0,37.8,28.944V8.377A8.193,8.193,0,0,0,29.611.184Z" transform="translate(-0.851 -0.183)" fill="#d4af01"/>
      <path id="Path_7" data-name="Path 7" d="M240.673,345.312a3.3,3.3,0,0,1-3.293,3.3h-18.91a3.294,3.294,0,0,1-3.293-3.293v-18.91a3.294,3.294,0,0,1,3.293-3.293,22.109,22.109,0,0,1,10.488,2.628,3.382,3.382,0,0,1,1.668,3.875l-.779,2.831a1.213,1.213,0,0,0,1.476,1.5l2.912-.759a3.364,3.364,0,0,1,3.815,1.652,22.1,22.1,0,0,1,2.624,10.475Z" transform="translate(-210.605 -316.226)" fill="#fff" fill-rule="evenodd"/>
    </g>
  </g>
</svg>
